<svg viewBox="0 0 400 400" preserveAspectRatio="none" class="listtopie-svg">
                            <desc>Created with Snap</desc>
                            <defs></defs>
                            <g>
                                <path d="M390,200 A190,190 0 0,1 377.64606183596965,267.3934471159537 L279.4732381897759,230.14970002555822 A85,85 0 0,0 285,200 L390,200 Z" id="PathsvgSkum4vlh300" stroke="#f2f8fe" fill="#f8c04e" style="fill-opacity: 1; stroke-width: 5;"></path>
                                <path d="M377.64606183596965,267.3934471159537 A190,190 0 0,1 245.03381174351586,384.58590357838693 L220.14670525367814,282.57790423243625 A85,85 0 0,0 279.4732381897759,230.14970002555822 L377.64606183596965,267.3934471159537 Z" id="PathsvgSkum4vlh301" stroke="#f2f8fe" fill="#ac56f4" style="fill-opacity: 1; stroke-width: 5;"></path>
                                <path d="M245.03381174351586,384.58590357838693 A190,190 0 0,1 51.63636215462063,318.69385394907823 L133.62679359548815,253.0998820298508 A85,85 0 0,0 220.14670525367814,282.57790423243625 L245.03381174351586,384.58590357838693 Z" id="PathsvgSkum4vlh302" stroke="#f2f8fe" fill="#61f89f" style="fill-opacity: 1; stroke-width: 5;"></path>
                                <path d="M51.63636215462063,318.69385394907823 A190,190 0 0,1 91.94264131759873,43.71945983398035 L151.65855006313626,130.0850215046754 A85,85 0 0,0 133.62679359548815,253.0998820298508 L51.63636215462063,318.69385394907823 Z" id="PathsvgSkum4vlh303" stroke="#f2f8fe" fill="#5ad6f8" style="fill-opacity: 1;stroke-width: 5;"></path>
                                <path d="M91.94264131759873,43.71945983398035 A190,190 0 0,1 389.9999971061345,199.9668387443806 L284.99999870537596,199.98516470143343 A85,85 0 0,0 151.65855006313626,130.0850215046754 L91.94264131759873,43.71945983398035 Z" id="PathsvgSkum4vlh304" stroke="#f2f8fe" fill="#f85d77" style="fill-opacity: 1; stroke-width: 5;"></path>
                            </g>
                            <g>
                                <text x="319.4886326968517" y="234.7999294248412" id="tsvgSkum4vlh30PathsvgSkum4vlh300" stroke="#3d1f94" fill="#3d1f94" style="font-size: 18px; pointer-events: none; font-family: Rubik; font-weight: 300; opacity: 1;" transform="matrix(0,1,-1,0,560.0386,-110.4543)">12.2</text>
                                <text x="275.29448723033147" y="313.0404709817546" id="tsvgSkum4vlh30PathsvgSkum4vlh301" stroke="#3d1f94" fill="#3d1f94" style="font-size: 18px; pointer-events: none; font-family: Rubik; font-weight: 300; opacity: 1;" transform="matrix(0,1,-1,0,594.085,11.9804)">32.6</text>
                                <text x="139.8979759114676" y="340.16095652115484" id="tsvgSkum4vlh30PathsvgSkum4vlh302" stroke="#3d1f94" fill="#3d1f94" style="font-size: 18px; pointer-events: none; font-family: Rubik; font-weight: 300; opacity: 1;" transform="matrix(0,1,-1,0,485.8089,174.4974)">38.2</text>
                                <text x="48.19598219649496" y="190.06589628022414" id="tsvgSkum4vlh30PathsvgSkum4vlh303" stroke="#3d1f94" fill="#3d1f94" style="font-size: 18px; pointer-events: none; font-family: Rubik; font-weight: 300; opacity: 1;" transform="matrix(0,1,-1,0,244.0119,116.1043)">55.2</text>
                                <text x="248.0822921358291" y="88.22648782299385" id="tsvgSkum4vlh30PathsvgSkum4vlh304" stroke="#3d1f94" fill="#3d1f94" style="font-size: 18px; pointer-events: none; font-family: Rubik; font-weight: 300; opacity: 1;" transform="matrix(0,1,-1,0,342.0588,-185.6214)">73.2</text>
                            </g>
                        </svg>